Coordinates
version=1
nRows=22
nColumns=24
inDegrees=yes

Units are S.I. units (second, meters, Newtons, ...)
Angles are in degrees.

endheader
time	pelvis_tilt	pelvis_list	pelvis_rotation	pelvis_tx	pelvis_ty	pelvis_tz	hip_flexion_r	hip_adduction_r	hip_rotation_r	knee_angle_r	ankle_angle_r	subtalar_angle_r	mtp_angle_r	hip_flexion_l	hip_adduction_l	hip_rotation_l	knee_angle_l	ankle_angle_l	subtalar_angle_l	mtp_angle_l	lumbar_extension	lumbar_bending	lumbar_rotation
      2.28000000	     15.79836149	     -0.27494724	      5.18034729	      0.93499727	      0.91395806	      0.31626938	      9.03311382	      3.68815711	     -2.00229893	    -27.60259148	     13.69330035	     -1.34943582	     31.33315041	    -21.00730627	     -3.44609781	     -3.08690455	    -49.06854247	     12.02560724	      9.18699348	     56.57795545	    -26.83837526	      4.53605825	     -3.32148179
      2.28500000	     15.43801002	     -0.70481619	      5.54693359	      0.94060019	      0.91392329	      0.31630167	      9.01095937	      4.21447307	     -2.11433076	    -27.47990970	     13.94478828	     -1.70598798	     30.57533463	    -19.36552469	     -4.03804898	     -2.57064489	    -51.37747748	     11.49504213	      8.81737307	     53.48431500	    -26.45513223	      5.15582606	     -3.33907449
      2.29000000	     15.18953398	     -1.12419720	      5.89061040	      0.94610774	      0.91403675	      0.31630594	      8.84110187	      4.72705779	     -2.19770968	    -27.29335936	     14.22633944	     -2.00045933	     29.79658392	    -17.89054684	     -4.55372482	     -1.97056812	    -53.53800145	     11.36853882	      8.18385519	     50.75476197	    -26.18920126	      5.76547336	     -3.31733133
      2.29500000	     14.84244546	     -1.46634516	      6.20185809	      0.95158978	      0.91405289	      0.31617628	      8.85665452	      5.11683692	     -2.32761404	    -27.27019284	     14.41143698	     -2.14024666	     29.42135267	    -16.31028277	     -4.91312335	     -1.36102894	    -55.63107216	     11.70524377	      7.48520938	     50.34568042	    -25.83119025	      6.28256928	     -3.28717613
      2.30000000	     14.51178149	     -1.74606590	      6.48753627	      0.95695581	      0.91421077	      0.31601402	      8.82712817	      5.43068509	     -2.44402058	    -27.18345272	     14.68696563	     -2.14012160	     28.95461722	    -14.75901487	     -5.13602425	     -0.72391432	    -57.60503151	     12.21670304	      6.83230634	     49.87951982	    -25.49445327	      6.72589920	     -3.27002666
      2.30500000	     14.31274619	     -2.00799005	      6.77090909	      0.96235722	      0.91463336	      0.31582097	      8.61248969	      5.72152539	     -2.63108477	    -27.03153519	     15.04332167	     -1.99659258	     28.48351741	    -13.38365177	     -5.34444634	     -0.17828724	    -59.40995429	     12.65195532	      6.20689441	     49.43253864	    -25.29641769	      7.16348177	     -3.21670351
      2.31000000	     14.25482234	     -2.20560922	      7.06016627	      0.96784121	      0.91545733	      0.31555719	      8.16334041	      5.95180364	     -2.84556764	    -26.74140184	     15.29653872	     -1.91726616	     28.33182221	    -12.23677462	     -5.46873624	      0.37614615	    -60.98317840	     12.90701859	      5.33540042	     49.24616624	    -25.25135339	      7.56305963	     -3.18225752
      2.31500000	     14.03782575	     -2.36805080	      7.28739099	      0.97326975	      0.91603922	      0.31554688	      7.95205762	      6.13336110	     -3.06144359	    -26.57895032	     15.62286553	     -1.75687725	     27.94167288	    -10.86862017	     -5.56655734	      0.79001940	    -62.58100202	     13.16485628	      4.45713205	     48.83786592	    -25.04558608	      7.85478254	     -3.14942090
      2.32000000	     14.00651930	     -2.47645986	      7.51521442	      0.97863408	      0.91696021	      0.31552196	      7.48362340	      6.28630441	     -3.28042203	    -26.31775516	     15.87867537	     -1.74620653	     27.68103440	     -9.72411160	     -5.64693498	      1.13290250	    -63.99063540	     13.29788459	      3.39786925	     48.50775668	    -25.04927189	      8.11627930	     -3.24184110
      2.32500000	     14.02973141	     -2.59489630	      7.65819193	      0.98403106	      0.91805053	      0.31559029	      6.92383443	      6.46414990	     -3.41610151	    -25.97506324	     16.03296607	     -1.61155700	     27.55978247	     -8.67015311	     -5.77103530	      1.32781365	    -65.27766293	     13.47886537	      2.62863605	     48.36754613	    -25.12688965	      8.34083832	     -3.14505331
      2.33000000	     13.74587104	     -2.64728380	      7.79744924	      0.98935219	      0.91868493	      0.31572268	      6.75912549	      6.53178381	     -3.49867216	    -25.77659144	     16.37405713	     -1.40044172	     26.75643030	     -7.21843796	     -5.79080017	      1.55692425	    -66.59935129	     13.72714756	      2.07783777	     47.62651544	    -24.86335292	      8.46659788	     -3.17074944
      2.33500000	     13.67994608	     -2.68193618	      7.99269625	      0.99460211	      0.91962440	      0.31579036	      6.29790590	      6.62243126	     -3.61178388	    -25.47362777	     16.64468543	     -1.27377216	     24.86116109	     -6.01245967	     -5.81987780	      1.78610429	    -67.79345498	     13.88286075	      1.47869557	     46.66797182	    -24.84218637	      8.61368430	     -3.24752158
      2.34000000	     13.55409755	     -2.70149610	      8.14333297	      0.99982842	      0.92055341	      0.31590779	      5.88338518	      6.68983976	     -3.70331533	    -25.11048631	     16.81485838	     -1.12869891	     24.81221281	     -4.76292774	     -5.81288448	      1.98063005	    -68.88602949	     14.06587677	      1.07395445	     46.66987739	    -24.77334680	      8.72619704	     -3.29140927
      2.34500000	     13.37929671	     -2.71392952	      8.23897010	      1.00507903	      0.92137278	      0.31604095	      5.53610881	      6.73292594	     -3.80479435	    -24.78578519	     17.12699364	     -0.91560746	     24.74117328	     -3.47960363	     -5.74902142	      2.14096643	    -69.91820041	     14.32911269	      0.56264890	     46.57389473	    -24.64968774	      8.79021638	     -3.29053760
      2.35000000	     13.27946156	     -2.71390192	      8.29502778	      1.01033668	      0.92226749	      0.31625204	      5.13177431	      6.78503360	     -3.92146697	    -24.50955845	     17.40542593	     -0.79248531	     24.66892207	     -2.31076596	     -5.65800546	      2.28261117	    -70.81198228	     14.53634503	      0.03696040	     46.38482084	    -24.61072898	      8.81898234	     -3.23716833
      2.35500000	     13.23551030	     -2.77927214	      8.29773106	      1.01570251	      0.92333351	      0.31654056	      4.48869959	      6.94733652	     -3.79158702	    -23.86082810	     17.50888580	     -0.80837096	     24.60460093	     -1.26399403	     -5.68062897	      2.32819486	    -71.50541155	     14.90921377	     -0.13836860	     46.29002628	    -24.62810241	      8.90930337	     -3.09314465
      2.36000000	     13.32165226	     -2.97627175	      8.34852630	      1.02122118	      0.92463668	      0.31719088	      3.43963402	      7.34117877	     -3.38972160	    -22.65028313	     17.37282821	     -1.15004289	     24.49876507	     -0.35651859	     -5.94974589	      2.33321640	    -72.13256027	     15.30125204	     -0.23012298	     46.08419217	    -24.74816316	      9.12830944	     -3.04941037
      2.36500000	     13.44834813	     -3.15248343	      8.35856243	      1.02680218	      0.92603728	      0.31774533	      2.22623884	      7.70976066	     -2.89838201	    -21.22182131	     17.17529313	     -1.50109439	     24.41847642	      0.46561067	     -6.20346269	      2.26699614	    -72.64363129	     15.63274432	     -0.17027515	     45.88205793	    -24.91482496	      9.31249031	     -2.87591697
      2.37000000	     13.59464846	     -3.25908909	      8.31473267	      1.03247631	      0.92738335	      0.31829756	      1.08464442	      7.98830804	     -2.42128989	    -20.01709345	     17.02084632	     -1.81919836	     24.35032534	      1.22035172	     -6.37507526	      2.12509042	    -73.05092656	     15.96311048	     -0.24281397	     45.67465935	    -25.10204242	      9.39943537	     -2.66322012
      2.37500000	     13.60386009	     -3.21833754	      8.18660911	      1.03805153	      0.92849540	      0.31854167	      0.40842196	      7.99716752	     -2.30983695	    -19.50382007	     17.13577554	     -1.61210677	     24.35825254	      2.05839780	     -6.28375868	      1.96113683	    -73.34763039	     16.35199871	     -0.24752557	     45.63377681	    -25.17021199	      9.33381971	     -2.46561673
      2.38000000	     13.55696891	     -3.10349212	      7.88680528	      1.04347112	      0.92938936	      0.31892765	      0.03129490	      7.88801279	     -2.33239694	    -19.48693902	     17.42914915	     -1.20198174	     24.35880008	      2.91114323	     -6.08925868	      1.65231763	    -73.58034703	     16.85914054	     -0.11297104	     45.44146888	    -25.22075150	      9.11451487	     -2.03951947
      2.38500000	     13.48092471	     -2.96971592	      7.61114767	      1.04904724	      0.93025178	      0.31920231	     -0.32116809	      7.72889178	     -2.50695997	    -19.47645831	     17.76223288	     -0.60044797	     24.17431455	      3.75578988	     -5.86087050	      1.34223094	    -73.70087415	     17.37872066	     -0.09306490	     44.99100513	    -25.21199520	      8.89428049	     -1.74104014
